<svg version="1.0" xmlns="http://www.w3.org/2000/svg"
 width="512.000000pt" height="512.000000pt" viewBox="0 0 512.000000 512.000000"
 preserveAspectRatio="xMidYMid meet">

<g transform="translate(0.000000,512.000000) scale(0.100000,-0.100000)"
fill="#000000" stroke="none">
<path d="M846 4814 c-208 -46 -396 -195 -556 -439 -98 -150 -207 -399 -260
-593 -12 -42 -23 -84 -26 -92 -2 -10 8 -22 29 -33 45 -24 93 -100 117 -182 23
-77 39 -259 40 -435 1 -199 34 -456 79 -607 29 -96 81 -143 160 -143 55 0 80
12 125 56 49 50 137 182 170 257 71 162 127 403 171 742 73 568 112 742 211
936 58 112 143 212 235 275 72 49 182 104 210 104 22 1 -77 50 -166 82 -216
79 -398 104 -539 72z"/>
<path d="M4032 4820 c-110 -15 -339 -88 -441 -140 l-34 -17 48 -16 c136 -47
296 -177 372 -305 113 -190 168 -398 228 -862 86 -671 151 -886 338 -1113 49
-59 87 -79 148 -79 116 0 160 71 203 327 24 145 26 166 36 465 11 330 19 380
79 497 19 39 66 86 93 95 18 6 -10 114 -74 288 -226 608 -583 917 -996 860z"/>
<path d="M1620 3251 c-79 -25 -149 -82 -186 -152 -47 -91 -41 -346 10 -433 96
-165 322 -193 455 -56 64 67 81 125 81 288 0 122 -3 142 -24 187 -34 73 -69
110 -138 144 -63 32 -138 40 -198 22z m131 -86 c37 -19 69 -70 69 -109 0 -38
-35 -93 -70 -111 -82 -43 -180 20 -180 116 0 36 6 47 40 81 46 43 88 50 141
23z"/>
<path d="M3323 3239 c-70 -27 -136 -94 -162 -164 -17 -46 -21 -79 -21 -185 0
-154 18 -214 81 -280 132 -136 359 -109 454 54 51 86 59 323 15 423 -62 142
-222 208 -367 152z m167 -75 c85 -51 79 -173 -10 -219 -60 -31 -134 -4 -164
59 -20 43 -20 59 1 103 31 66 112 92 173 57z"/>
<path d="M2480 2179 c-99 -11 -156 -27 -218 -58 -192 -98 -250 -269 -141 -410
56 -71 266 -189 381 -213 81 -17 148 -1 286 68 184 92 261 178 262 290 1 202
-274 358 -570 323z"/>
</g>
</svg>